<mxfile host="app.diagrams.net" modified="2024-01-22T05:45:46.138Z" agent="Mozilla/5.0 (Windows NT 10.0; Win64; x64) AppleWebKit/537.36 (KHTML, like Gecko) Chrome/120.0.0.0 Safari/537.36" etag="bXAQ_LMGH2L6e70uCsia" version="22.1.15" type="device">
  <diagram name="Page-1" id="55a83fd1-7818-8e21-69c5-c3457e3827bb">
    <mxGraphModel dx="2938" dy="953" grid="1" gridSize="10" guides="1" tooltips="1" connect="1" arrows="1" fold="1" page="1" pageScale="1" pageWidth="1100" pageHeight="850" background="none" math="0" shadow="0">
      <root>
        <mxCell id="0" />
        <mxCell id="1" parent="0" />
        <mxCell id="sXz6TYeAHfsP7NhKn53r-49" style="edgeStyle=orthogonalEdgeStyle;rounded=0;orthogonalLoop=1;jettySize=auto;html=1;exitX=1;exitY=0.5;exitDx=0;exitDy=0;" edge="1" parent="1" source="69ecfefc5c41e42c-2" target="sXz6TYeAHfsP7NhKn53r-46">
          <mxGeometry relative="1" as="geometry" />
        </mxCell>
        <mxCell id="sXz6TYeAHfsP7NhKn53r-14" value="" style="group" vertex="1" connectable="0" parent="1">
          <mxGeometry x="258" y="325" width="80" height="110" as="geometry" />
        </mxCell>
        <mxCell id="sXz6TYeAHfsP7NhKn53r-9" value="" style="shape=image;html=1;verticalAlign=top;verticalLabelPosition=bottom;labelBackgroundColor=#ffffff;imageAspect=0;aspect=fixed;image=https://cdn1.iconfinder.com/data/icons/fruit-136/64/Fruit_iconfree_Filled_Outline_raspberry-healthy-organic-food-fruit_icon-128.png" vertex="1" parent="sXz6TYeAHfsP7NhKn53r-14">
          <mxGeometry x="26" y="40" width="28" height="28" as="geometry" />
        </mxCell>
        <mxCell id="sXz6TYeAHfsP7NhKn53r-38" value="" style="group" vertex="1" connectable="0" parent="sXz6TYeAHfsP7NhKn53r-14">
          <mxGeometry width="80" height="110" as="geometry" />
        </mxCell>
        <mxCell id="sXz6TYeAHfsP7NhKn53r-27" value="&lt;font style=&quot;font-size: 21px;&quot;&gt;Router&lt;/font&gt;" style="rounded=1;whiteSpace=wrap;html=1;" vertex="1" parent="sXz6TYeAHfsP7NhKn53r-38">
          <mxGeometry x="2" y="85" width="70" height="27" as="geometry" />
        </mxCell>
        <mxCell id="sXz6TYeAHfsP7NhKn53r-55" value="" style="group" vertex="1" connectable="0" parent="sXz6TYeAHfsP7NhKn53r-38">
          <mxGeometry width="80" height="80" as="geometry" />
        </mxCell>
        <mxCell id="69ecfefc5c41e42c-1" value="" style="image;html=1;labelBackgroundColor=#ffffff;image=img/lib/clip_art/networking/Wireless_Router_128x128.png;rounded=1;shadow=0;comic=0;strokeWidth=2;fontSize=22" parent="sXz6TYeAHfsP7NhKn53r-55" vertex="1">
          <mxGeometry width="80" height="80" as="geometry" />
        </mxCell>
        <mxCell id="sXz6TYeAHfsP7NhKn53r-50" value="" style="shape=image;html=1;verticalAlign=top;verticalLabelPosition=bottom;labelBackgroundColor=#ffffff;imageAspect=0;aspect=fixed;image=https://cdn1.iconfinder.com/data/icons/fruit-136/64/Fruit_iconfree_Filled_Outline_raspberry-healthy-organic-food-fruit_icon-128.png" vertex="1" parent="sXz6TYeAHfsP7NhKn53r-55">
          <mxGeometry x="29.260769230769256" y="44.25666666666666" width="21.48148148148148" height="21.48148148148148" as="geometry" />
        </mxCell>
        <mxCell id="69ecfefc5c41e42c-2" value="Internet" style="image;html=1;labelBackgroundColor=#ffffff;image=img/lib/clip_art/networking/Cloud_128x128.png;rounded=1;shadow=0;comic=0;strokeWidth=2;fontSize=22;labelPosition=center;verticalLabelPosition=top;align=center;verticalAlign=bottom;" parent="1" vertex="1">
          <mxGeometry x="980" y="325" width="80" height="80" as="geometry" />
        </mxCell>
        <mxCell id="sXz6TYeAHfsP7NhKn53r-21" style="edgeStyle=orthogonalEdgeStyle;rounded=0;orthogonalLoop=1;jettySize=auto;html=1;" edge="1" parent="1" source="69ecfefc5c41e42c-1" target="sXz6TYeAHfsP7NhKn53r-16">
          <mxGeometry relative="1" as="geometry" />
        </mxCell>
        <mxCell id="sXz6TYeAHfsP7NhKn53r-24" style="edgeStyle=orthogonalEdgeStyle;rounded=0;orthogonalLoop=1;jettySize=auto;html=1;exitX=1;exitY=0.5;exitDx=0;exitDy=0;exitPerimeter=0;" edge="1" parent="1" source="sXz6TYeAHfsP7NhKn53r-7" target="69ecfefc5c41e42c-1">
          <mxGeometry relative="1" as="geometry">
            <Array as="points">
              <mxPoint x="139" y="365" />
            </Array>
          </mxGeometry>
        </mxCell>
        <mxCell id="sXz6TYeAHfsP7NhKn53r-44" style="edgeStyle=orthogonalEdgeStyle;rounded=0;orthogonalLoop=1;jettySize=auto;html=1;exitX=1;exitY=0.5;exitDx=0;exitDy=0;entryX=0;entryY=0.5;entryDx=0;entryDy=0;" edge="1" parent="1" source="sXz6TYeAHfsP7NhKn53r-33" target="sXz6TYeAHfsP7NhKn53r-42">
          <mxGeometry relative="1" as="geometry" />
        </mxCell>
        <mxCell id="sXz6TYeAHfsP7NhKn53r-33" value="&lt;font style=&quot;font-size: 38px;&quot;&gt;Mines&lt;/font&gt;" style="whiteSpace=wrap;html=1;fontSize=8;verticalAlign=top;fillColor=#007AFF;strokeColor=none;fontColor=#222222;strokeWidth=1;shadow=0;dashed=0;sketch=0;" vertex="1" parent="1">
          <mxGeometry x="700" y="335" width="120" height="60" as="geometry" />
        </mxCell>
        <mxCell id="sXz6TYeAHfsP7NhKn53r-34" value="" style="edgeStyle=orthogonalEdgeStyle;rounded=0;orthogonalLoop=1;jettySize=auto;html=1;" edge="1" parent="1" source="sXz6TYeAHfsP7NhKn53r-16" target="sXz6TYeAHfsP7NhKn53r-33">
          <mxGeometry relative="1" as="geometry" />
        </mxCell>
        <mxCell id="sXz6TYeAHfsP7NhKn53r-36" value="" style="group" vertex="1" connectable="0" parent="1">
          <mxGeometry x="533" y="330.75" width="160" height="140" as="geometry" />
        </mxCell>
        <mxCell id="sXz6TYeAHfsP7NhKn53r-17" value="" style="group" vertex="1" connectable="0" parent="sXz6TYeAHfsP7NhKn53r-36">
          <mxGeometry width="127.5" height="140" as="geometry" />
        </mxCell>
        <mxCell id="sXz6TYeAHfsP7NhKn53r-16" value="" style="html=1;strokeWidth=1;shadow=0;dashed=0;shape=mxgraph.ios7.misc.vpn;fillColor=#007AFF;strokeColor=none;buttonText=;strokeColor2=#222222;fontColor=#222222;fontSize=8;verticalLabelPosition=bottom;verticalAlign=top;align=center;sketch=0;" vertex="1" parent="sXz6TYeAHfsP7NhKn53r-17">
          <mxGeometry width="100" height="70" as="geometry" />
        </mxCell>
        <mxCell id="sXz6TYeAHfsP7NhKn53r-10" value="" style="shape=image;html=1;verticalAlign=top;verticalLabelPosition=bottom;labelBackgroundColor=#ffffff;imageAspect=0;aspect=fixed;image=https://cdn1.iconfinder.com/data/icons/fruit-136/64/Fruit_iconfree_Filled_Outline_raspberry-healthy-organic-food-fruit_icon-128.png" vertex="1" parent="sXz6TYeAHfsP7NhKn53r-17">
          <mxGeometry x="39.23076923076923" y="46.666666666666664" width="21.48148148148148" height="21.48148148148148" as="geometry" />
        </mxCell>
        <mxCell id="sXz6TYeAHfsP7NhKn53r-40" value="" style="group" vertex="1" connectable="0" parent="1">
          <mxGeometry x="9" y="326" width="130" height="140" as="geometry" />
        </mxCell>
        <mxCell id="sXz6TYeAHfsP7NhKn53r-15" value="" style="group" vertex="1" connectable="0" parent="sXz6TYeAHfsP7NhKn53r-40">
          <mxGeometry x="14.29" width="80" height="80" as="geometry" />
        </mxCell>
        <mxCell id="sXz6TYeAHfsP7NhKn53r-7" value="" style="outlineConnect=0;dashed=0;verticalLabelPosition=bottom;verticalAlign=top;align=center;html=1;shape=mxgraph.aws3.alexa_enabled_device;fillColor=#5294CF;gradientColor=none;labelBorderColor=none;labelBackgroundColor=none;" vertex="1" parent="sXz6TYeAHfsP7NhKn53r-15">
          <mxGeometry width="68.57142857142856" height="80" as="geometry" />
        </mxCell>
        <mxCell id="sXz6TYeAHfsP7NhKn53r-2" value="" style="shape=image;html=1;verticalAlign=top;verticalLabelPosition=bottom;labelBackgroundColor=#ffffff;imageAspect=0;aspect=fixed;image=https://cdn1.iconfinder.com/data/icons/fruit-136/64/Fruit_iconfree_Filled_Outline_raspberry-healthy-organic-food-fruit_icon-128.png" vertex="1" parent="sXz6TYeAHfsP7NhKn53r-15">
          <mxGeometry x="25.14" y="27" width="23" height="23" as="geometry" />
        </mxCell>
        <mxCell id="sXz6TYeAHfsP7NhKn53r-25" value="&lt;font style=&quot;font-size: 19px;&quot;&gt;Alexa-Enabled Device&lt;/font&gt;" style="rounded=0;whiteSpace=wrap;html=1;" vertex="1" parent="sXz6TYeAHfsP7NhKn53r-40">
          <mxGeometry x="-15.71" y="93" width="130" height="47" as="geometry" />
        </mxCell>
        <mxCell id="sXz6TYeAHfsP7NhKn53r-41" value="" style="group" vertex="1" connectable="0" parent="1">
          <mxGeometry x="375" y="381.25" width="120" height="190" as="geometry" />
        </mxCell>
        <mxCell id="sXz6TYeAHfsP7NhKn53r-30" value="" style="shape=flexArrow;endArrow=classic;html=1;rounded=0;" edge="1" parent="sXz6TYeAHfsP7NhKn53r-41">
          <mxGeometry width="50" height="50" relative="1" as="geometry">
            <mxPoint x="60" y="80" as="sourcePoint" />
            <mxPoint x="60" as="targetPoint" />
          </mxGeometry>
        </mxCell>
        <mxCell id="sXz6TYeAHfsP7NhKn53r-31" value="&lt;font style=&quot;font-size: 21px;&quot;&gt;&lt;b&gt;Attack:&lt;br&gt;&lt;/b&gt;Capture Incoming Data&lt;br&gt;&lt;/font&gt;" style="rounded=1;whiteSpace=wrap;html=1;" vertex="1" parent="sXz6TYeAHfsP7NhKn53r-41">
          <mxGeometry x="-5" y="87.75" width="125" height="102.25" as="geometry" />
        </mxCell>
        <mxCell id="sXz6TYeAHfsP7NhKn53r-45" style="edgeStyle=orthogonalEdgeStyle;rounded=0;orthogonalLoop=1;jettySize=auto;html=1;exitX=1;exitY=0.5;exitDx=0;exitDy=0;entryX=0;entryY=0.5;entryDx=0;entryDy=0;" edge="1" parent="1" source="sXz6TYeAHfsP7NhKn53r-42" target="69ecfefc5c41e42c-2">
          <mxGeometry relative="1" as="geometry" />
        </mxCell>
        <mxCell id="sXz6TYeAHfsP7NhKn53r-42" value="" style="image;html=1;image=img/lib/clip_art/networking/Firewall-page1_128x128.png" vertex="1" parent="1">
          <mxGeometry x="860" y="325" width="80" height="80" as="geometry" />
        </mxCell>
        <mxCell id="sXz6TYeAHfsP7NhKn53r-46" value="&lt;font style=&quot;font-size: 16px;&quot;&gt;Amazon Server&lt;/font&gt;" style="sketch=0;outlineConnect=0;fontColor=#232F3E;gradientColor=none;strokeColor=#ffffff;fillColor=#232F3E;dashed=0;verticalLabelPosition=middle;verticalAlign=bottom;align=center;html=1;whiteSpace=wrap;fontSize=10;fontStyle=1;spacing=3;shape=mxgraph.aws4.productIcon;prIcon=mxgraph.aws4.serverless_application_repository;" vertex="1" parent="1">
          <mxGeometry x="1140" y="294.5" width="100" height="141.5" as="geometry" />
        </mxCell>
        <mxCell id="sXz6TYeAHfsP7NhKn53r-57" value="" style="curved=1;endArrow=classic;html=1;rounded=0;" edge="1" parent="1">
          <mxGeometry width="50" height="50" relative="1" as="geometry">
            <mxPoint x="533" y="326" as="sourcePoint" />
            <mxPoint x="300" y="320" as="targetPoint" />
            <Array as="points">
              <mxPoint x="523" y="276" />
              <mxPoint x="470" y="250" />
              <mxPoint x="403" y="260" />
            </Array>
          </mxGeometry>
        </mxCell>
        <mxCell id="sXz6TYeAHfsP7NhKn53r-58" value="&lt;font style=&quot;font-size: 18px;&quot;&gt;Incoming Data&lt;/font&gt;" style="rounded=1;whiteSpace=wrap;html=1;" vertex="1" parent="1">
          <mxGeometry x="370" y="190" width="120" height="56" as="geometry" />
        </mxCell>
      </root>
    </mxGraphModel>
  </diagram>
</mxfile>
